# xmcd
#
# Track frame offsets:
#	150
#	13457
#	26657
#	39807
#	51114
#	64118
#	75240
#	86725
#	99527
#	112781
#	129305
#	142524
#	153596
#	163412
#	171428
#	187393
#	196847
#	207151
#	219426
#	230419
#	241051
#	253408
#	265840
#	277100
#	286949
#	300609
#	311381
#	323794
#
# Disc length: 4481 seconds
#
# Revision: 1
# Processed by: cddbd v1.5.2PL0 Copyright (c) Steve Scherf et al.
# Submitted via: EZCDAudioConverter 3.1.5.1
#
DISCID=89117f1c
DTITLE=James Brown - Tour The U.S.A. (1962) and Night Train (1961) [Bonus Tracks
DTITLE=]
DYEAR=2014
DGENRE=R&B
TTITLE0=Mashed Potatoes U.S.A.
TTITLE1=Choo-Choo (Loco-Motion)
TTITLE2=Three Hearts In A Tangle
TTITLE3=Doin' The Limbo
TTITLE4=I Don't Care
TTITLE5=Joggin' Along
TTITLE6=I've Got Money
TTITLE7=Sticky
TTITLE8=Like A Baby
TTITLE9=Every Beat Of My Heart
TTITLE10=In The Wee Wee Hours (Of The Nite)
TTITLE11=Cross Firing
TTITLE12=Hold It
TTITLE13=The Scratch
TTITLE14=Night Train
TTITLE15=The Wobble (The Wobblers)
TTITLE16=Night Flying
TTITLE17=Just A Little Bit Of Everything (Herb Hardesty)
TTITLE18=Doin' Everything (Henry Moore)
TTITLE19=Suds
TTITLE20=Tonk Game
TTITLE21=Switch-A-Roo (Henry Moore)
TTITLE22=Bushy Tail (Clifford Scott)
TTITLE23=Strange Things Happen
TTITLE24=Why Do You Do Me
TTITLE25=Hot Chilli
TTITLE26=It Was You
TTITLE27=Gonna Try
EXTD=
EXTT0=
EXTT1=
EXTT2=
EXTT3=
EXTT4=
EXTT5=
EXTT6=
EXTT7=
EXTT8=
EXTT9=
EXTT10=
EXTT11=
EXTT12=
EXTT13=
EXTT14=
EXTT15=
EXTT16=
EXTT17=
EXTT18=
EXTT19=
EXTT20=
EXTT21=
EXTT22=
EXTT23=
EXTT24=
EXTT25=
EXTT26=
EXTT27=
PLAYORDER=
